<svg width="200" height="100" viewBox="0 0 200 100" fill="none" xmlns="http://www.w3.org/2000/svg">
<g clip-path="url(#clip0_51_836)">
<path d="M51.4333 30.2126C51.1464 28.9798 50.6118 27.8182 49.8619 26.7985C49.112 25.7788 48.1626 24.9223 47.0713 24.2811C45.98 23.6398 44.7697 23.2273 43.5139 23.0684C42.2582 22.9096 40.9832 23.0079 39.7667 23.3573L35.744 24.5076C34.725 24.8005 33.7864 25.3225 33 26.0336C32.2136 25.3225 31.275 24.8005 30.256 24.5076L26.2333 23.3573C25.0175 23.0097 23.7437 22.9129 22.4894 23.0726C21.235 23.2322 20.0261 23.6452 18.9361 24.2863C17.8462 24.9274 16.8979 25.7833 16.1488 26.802C15.3996 27.8208 14.8654 28.9811 14.5783 30.2126C11.8945 30.7009 9.46667 32.1142 7.71678 34.2068C5.96688 36.2994 5.00559 38.9391 5 41.667L5 58.0003C5.00371 61.0933 6.23406 64.0587 8.42118 66.2458C10.6083 68.4329 13.5736 69.6632 16.6667 69.6669H30.6667V74.3336H23.6667C23.0478 74.3336 22.4543 74.5794 22.0168 75.017C21.5792 75.4546 21.3333 76.0481 21.3333 76.6669C21.3333 77.2858 21.5792 77.8793 22.0168 78.3169C22.4543 78.7545 23.0478 79.0003 23.6667 79.0003H42.3333C42.9522 79.0003 43.5457 78.7545 43.9832 78.3169C44.4208 77.8793 44.6667 77.2858 44.6667 76.6669C44.6667 76.0481 44.4208 75.4546 43.9832 75.017C43.5457 74.5794 42.9522 74.3336 42.3333 74.3336H35.3333V69.6669H49.3333C52.4264 69.6632 55.3917 68.4329 57.5788 66.2458C59.7659 64.0587 60.9963 61.0933 61 58.0003V41.667C60.9949 38.9408 60.0353 36.3024 58.2877 34.21C56.5401 32.1177 54.115 30.7033 51.4333 30.2126V30.2126ZM35.3333 31.2393C35.3336 30.7325 35.4988 30.2396 35.804 29.8351C36.1092 29.4305 36.5378 29.1363 37.025 28.9969L41.05 27.8466C41.7446 27.6479 42.4758 27.6132 43.1861 27.7453C43.8964 27.8773 44.5663 28.1724 45.1431 28.6074C45.72 29.0424 46.1879 29.6054 46.5101 30.252C46.8323 30.8986 47 31.6112 47 32.3336V41.5223C46.9968 42.5348 46.6653 43.519 46.0552 44.3272C45.4452 45.1354 44.5896 45.724 43.6167 46.0046L35.3333 48.3706V31.2393ZM20.8667 28.6003C21.4424 28.1669 22.1109 27.8732 22.8195 27.7424C23.5282 27.6116 24.2575 27.6473 24.95 27.8466L28.975 28.9969C29.4622 29.1363 29.8908 29.4305 30.196 29.8351C30.5012 30.2396 30.6664 30.7325 30.6667 31.2393V48.3706L22.3833 46.0046C21.4104 45.724 20.5548 45.1354 19.9448 44.3272C19.3347 43.519 19.0032 42.5348 19 41.5223V32.3336C18.9976 31.6087 19.1653 30.8934 19.4894 30.245C19.8136 29.5966 20.2853 29.0333 20.8667 28.6003V28.6003ZM56.3333 58.0003C56.3333 59.8568 55.5958 61.6373 54.2831 62.95C52.9703 64.2628 51.1898 65.0003 49.3333 65.0003H16.6667C14.8102 65.0003 13.0297 64.2628 11.7169 62.95C10.4042 61.6373 9.66667 59.8568 9.66667 58.0003V41.667C9.67265 40.2243 10.1242 38.8188 10.9595 37.6427C11.7949 36.4665 12.9732 35.5771 14.3333 35.0963V41.5223C14.339 43.5484 15.0016 45.518 16.2217 47.1357C17.4417 48.7533 19.1535 49.9316 21.1 50.4939L29.1523 52.797C31.6689 53.5143 34.3358 53.5143 36.8523 52.797L44.9047 50.4939C46.8503 49.9308 48.561 48.7521 49.7802 47.1345C50.9993 45.517 51.6612 43.5478 51.6667 41.5223V35.0963C53.0268 35.5771 54.2051 36.4665 55.0405 37.6427C55.8758 38.8188 56.3274 40.2243 56.3333 41.667V58.0003Z" fill="#374957"/>
</g>
<path d="M64.904 79V27.16H76.36V79H64.904ZM81.594 79V42.008H92.026V45.72C93.3913 44.3547 94.7993 43.288 96.25 42.52C97.7433 41.752 99.3007 41.368 100.922 41.368C102.458 41.368 103.717 41.752 104.698 42.52C105.722 43.2453 106.49 44.2693 107.002 45.592C107.514 46.872 107.77 48.344 107.77 50.008V79H97.402V51.48C97.402 50.584 97.2527 49.9013 96.954 49.432C96.6553 48.9627 96.1007 48.728 95.29 48.728C94.8633 48.728 94.3513 48.856 93.754 49.112C93.1993 49.3253 92.6233 49.6453 92.026 50.072V79H81.594ZM120.112 79.64C117.381 79.64 115.269 78.68 113.776 76.76C112.282 74.84 111.536 72.0027 111.536 68.248V52.952C111.536 50.648 111.856 48.6427 112.496 46.936C113.136 45.1867 114.096 43.8213 115.376 42.84C116.655 41.8587 118.234 41.368 120.112 41.368C121.477 41.368 122.778 41.6453 124.016 42.2C125.253 42.712 126.384 43.416 127.408 44.312V27.16H137.84V79H127.408V76.12C126.256 77.2293 125.061 78.104 123.824 78.744C122.586 79.3413 121.349 79.64 120.112 79.64ZM124.656 72.984C124.997 72.984 125.402 72.8987 125.872 72.728C126.384 72.5573 126.896 72.3227 127.408 72.024V48.664C126.981 48.4507 126.533 48.2587 126.064 48.088C125.594 47.9173 125.146 47.832 124.72 47.832C123.781 47.832 123.098 48.2373 122.672 49.048C122.245 49.816 122.032 50.7547 122.032 51.864V68.888C122.032 69.656 122.117 70.36 122.288 71C122.458 71.5973 122.736 72.088 123.12 72.472C123.504 72.8133 124.016 72.984 124.656 72.984ZM154.475 79.64C151.787 79.64 149.483 79.1707 147.563 78.232C145.643 77.2507 144.171 75.8427 143.147 74.008C142.123 72.1307 141.611 69.8907 141.611 67.288V53.72C141.611 51.0747 142.123 48.8347 143.147 47C144.171 45.1653 145.643 43.7787 147.563 42.84C149.526 41.8587 151.83 41.368 154.475 41.368C157.206 41.368 159.467 41.8373 161.259 42.776C163.094 43.7147 164.459 45.1013 165.355 46.936C166.294 48.7707 166.763 51.032 166.763 53.72V61.144H151.915V68.248C151.915 69.1867 152.022 69.9547 152.235 70.552C152.448 71.1493 152.747 71.576 153.131 71.832C153.515 72.088 153.963 72.216 154.475 72.216C154.987 72.216 155.435 72.1093 155.819 71.896C156.246 71.64 156.566 71.256 156.779 70.744C157.035 70.232 157.163 69.528 157.163 68.632V64.728H166.763V68.312C166.763 72.0667 165.675 74.904 163.499 76.824C161.323 78.7013 158.315 79.64 154.475 79.64ZM151.915 56.28H157.163V52.568C157.163 51.5867 157.035 50.8187 156.779 50.264C156.566 49.7093 156.246 49.3253 155.819 49.112C155.435 48.8987 154.966 48.792 154.411 48.792C153.899 48.792 153.451 48.92 153.067 49.176C152.726 49.432 152.448 49.88 152.235 50.52C152.022 51.1173 151.915 51.992 151.915 53.144V56.28ZM167.274 79L175.146 58.712L167.658 42.008H178.154L182.122 50.904L185.642 42.008H193.642L186.346 60.248L194.73 79H184.106L179.626 68.824L175.914 79H167.274Z" fill="#374957"/>
<defs>
<clipPath id="clip0_51_836">
<rect width="56" height="56" fill="white" transform="translate(5 23)"/>
</clipPath>
</defs>
</svg>
