<svg width="201" height="104" viewBox="0 0 201 104" fill="none" xmlns="http://www.w3.org/2000/svg">
<path d="M185.497 81.7544C182.945 81.7544 180.722 81.2926 178.829 80.3689C176.977 79.4453 175.536 78.0598 174.508 76.2125C173.52 74.3652 173.026 72.056 173.026 69.2851V54.7705C173.026 51.9995 173.52 49.6904 174.508 47.8431C175.536 45.9958 176.977 44.6103 178.829 43.6866C180.722 42.763 182.945 42.3012 185.497 42.3012C188.048 42.3012 190.25 42.763 192.102 43.6866C193.996 44.6103 195.457 45.9958 196.486 47.8431C197.515 49.6904 198.029 51.9995 198.029 54.7705V69.2851C198.029 72.056 197.515 74.3652 196.486 76.2125C195.457 78.0598 193.996 79.4453 192.102 80.3689C190.25 81.2926 188.048 81.7544 185.497 81.7544ZM185.558 74.6291C186.217 74.6291 186.731 74.4531 187.102 74.1013C187.472 73.7054 187.719 73.1776 187.843 72.5179C188.007 71.8141 188.09 70.9784 188.09 70.0108V54.0448C188.09 53.0771 188.007 52.2634 187.843 51.6037C187.719 50.8999 187.472 50.3721 187.102 50.0203C186.731 49.6244 186.217 49.4265 185.558 49.4265C184.9 49.4265 184.385 49.6244 184.015 50.0203C183.645 50.3721 183.377 50.8999 183.212 51.6037C183.048 52.2634 182.965 53.0771 182.965 54.0448V70.0108C182.965 70.9784 183.048 71.8141 183.212 72.5179C183.377 73.1776 183.645 73.7054 184.015 74.1013C184.385 74.4531 184.9 74.6291 185.558 74.6291Z" fill="#1F5373"/>
<path d="M159.342 81.0946V42.9609H169.405V81.0946H159.342ZM159.28 36.4953V29.0401H169.405V36.4953H159.28Z" fill="#1F5373"/>
<path d="M144.623 81.0947V27.6546H154.625V81.0947H144.623Z" fill="#1F5373"/>
<path d="M132.532 81.7544C131.215 81.7544 129.898 81.4465 128.581 80.8308C127.305 80.171 126.07 79.2913 124.876 78.1917V81.0947H114.813V27.6546H124.876V45.7319C126.111 44.5883 127.387 43.7306 128.704 43.1588C130.062 42.5871 131.379 42.3012 132.655 42.3012C134.013 42.3012 135.166 42.5871 136.112 43.1588C137.1 43.7306 137.903 44.5443 138.52 45.5999C139.137 46.6116 139.59 47.7991 139.878 49.1626C140.166 50.5261 140.31 51.9776 140.31 53.517V69.9448C140.31 72.3199 140.002 74.3872 139.384 76.1465C138.808 77.9058 137.944 79.2913 136.791 80.3029C135.639 81.2706 134.219 81.7544 132.532 81.7544ZM127.655 74.827C128.313 74.827 128.827 74.6291 129.198 74.2332C129.568 73.8374 129.836 73.3316 130 72.7158C130.165 72.056 130.247 71.3303 130.247 70.5386V52.7253C130.247 51.9775 130.165 51.3178 130 50.746C129.836 50.1302 129.568 49.6464 129.198 49.2946C128.869 48.9427 128.395 48.7668 127.778 48.7668C127.243 48.7668 126.728 48.8987 126.235 49.1626C125.782 49.3825 125.329 49.6684 124.876 50.0203V73.7714C125.329 74.0793 125.782 74.3432 126.235 74.5631C126.728 74.739 127.202 74.827 127.655 74.827Z" fill="#1F5373"/>
<path d="M100.389 81.0946V42.9609H110.452V81.0946H100.389ZM100.327 36.4953V29.0401H110.452V36.4953H100.327Z" fill="#1F5373"/>
<path d="M66.4405 81.0947V27.6546H79.4669C81.6071 27.6546 83.6238 27.8306 85.517 28.1825C87.4515 28.5343 89.1595 29.2161 90.6412 30.2277C92.1228 31.1953 93.2752 32.6028 94.0984 34.4501C94.9627 36.2534 95.3949 38.6505 95.3949 41.6414C95.3949 43.7966 95.0862 45.6219 94.4688 47.1174C93.8926 48.5688 93.0489 49.7344 91.9376 50.6141C90.8675 51.4937 89.5711 52.0875 88.0482 52.3954C89.9826 52.6593 91.6084 53.341 92.9254 54.4406C94.2424 55.4962 95.2302 56.9257 95.8888 58.729C96.5884 60.5323 96.9383 62.7095 96.9383 65.2606C96.9383 68.0315 96.5884 70.4286 95.8888 72.4519C95.2302 74.4311 94.263 76.0585 92.9871 77.3341C91.7113 78.6096 90.1267 79.5552 88.2334 80.171C86.3814 80.7868 84.2412 81.0947 81.8129 81.0947H66.4405ZM77.4913 72.8477H79.8373C82.2656 72.8477 83.9325 72.188 84.8379 70.8685C85.7846 69.549 86.2579 67.6137 86.2579 65.0626C86.2579 63.0394 86.0521 61.434 85.6405 60.2465C85.2289 59.0589 84.5498 58.2012 83.6032 57.6734C82.6566 57.1016 81.3807 56.8157 79.7756 56.8157H77.4913V72.8477ZM77.4913 49.0306H79.6521C81.3396 49.0306 82.6154 48.7668 83.4798 48.2389C84.3441 47.6672 84.9203 46.8535 85.2084 45.7979C85.5376 44.7423 85.7023 43.4667 85.7023 41.9713C85.7023 40.5638 85.4553 39.3983 84.9614 38.4746C84.5087 37.507 83.809 36.7812 82.8624 36.2974C81.9569 35.8136 80.8045 35.5717 79.4052 35.5717H77.4913V49.0306Z" fill="#1F5373"/>
<g clip-path="url(#clip0_7_806)">
<path d="M57.463 23.8143C56.0169 22.5221 54.3223 21.5859 52.4996 21.0724C50.6769 20.5588 48.7707 20.4803 46.9164 20.8426L37.0849 22.7504C34.815 23.1959 32.7512 24.4439 31.2251 26.2938C29.6949 24.4407 27.6252 23.1924 25.3498 22.7504L15.5338 20.8426C13.6795 20.48 11.7733 20.5574 9.95016 21.0694C8.12699 21.5813 6.43141 22.5152 4.98344 23.8051C3.53547 25.0949 2.3705 26.7091 1.57101 28.5335C0.771509 30.3578 0.357029 32.3476 0.356903 34.3621L0.356903 64.0317C0.357051 67.2502 1.41408 70.3666 3.34374 72.8377C5.27341 75.3087 7.95333 76.9778 10.9164 77.5539L27.0862 80.696C29.823 81.2274 32.6271 81.2274 35.364 80.696L51.5466 77.5539C54.5073 76.9749 57.1842 75.3046 59.1113 72.8338C61.0384 70.363 62.0936 67.2482 62.0932 64.0317V34.3621C62.0944 32.3483 61.6801 30.359 60.8798 28.5359C60.0795 26.7128 58.9129 25.1006 57.463 23.8143ZM28.6527 75.3987C28.4366 75.3657 28.2206 75.3272 28.0045 75.286L11.8373 72.1467C10.0592 71.801 8.45104 70.7993 7.29321 69.3163C6.13538 67.8333 5.50133 65.9631 5.5016 64.0317V34.3621C5.5016 32.1749 6.31464 30.0772 7.76187 28.5306C9.20909 26.984 11.172 26.1152 13.2186 26.1152C13.6845 26.1163 14.1493 26.1614 14.6077 26.2499L24.4341 28.1741C25.6164 28.4053 26.6856 29.0716 27.4562 30.0573C28.2268 31.043 28.6501 32.2859 28.6527 33.5704V75.3987ZM56.9485 64.0317C56.9488 65.9631 56.3148 67.8333 55.1569 69.3163C53.9991 70.7993 52.391 71.801 50.6129 72.1467L34.4457 75.286C34.2296 75.3272 34.0135 75.3657 33.7974 75.3987V33.5704C33.7972 32.2828 34.2199 31.036 34.9918 30.0473C35.7637 29.0587 36.8358 28.3909 38.0212 28.1604L47.8502 26.2361C48.9633 26.0197 50.1073 26.0675 51.2012 26.3761C52.2951 26.6847 53.3121 27.2465 54.1802 28.0219C55.0484 28.7972 55.7463 29.767 56.2247 30.8627C56.7031 31.9584 56.9502 33.153 56.9485 34.3621V64.0317Z" fill="#1F5373"/>
</g>
<defs>
<clipPath id="clip0_7_806">
<rect width="61.7363" height="65.9753" fill="white" transform="translate(0.356918 17.8683)"/>
</clipPath>
</defs>
</svg>
